<svg width="31" height="31" viewBox="0 0 31 31" fill="none" xmlns="http://www.w3.org/2000/svg">
<g clip-path="url(#clip0_2_116)">
<path d="M27.0862 9.39042C27.59 8.88667 27.59 8.07292 27.0862 7.56917L23.4308 3.91375C22.9271 3.41 22.1133 3.41 21.6096 3.91375L15.81 9.71333L10.7854 4.68875C9.77792 3.68125 8.1375 3.68125 7.13 4.68875L4.67583 7.14292C3.66833 8.15042 3.66833 9.79083 4.67583 10.7983L9.70042 15.8229L3.875 21.6483V27.125H9.35167L15.19 21.2867L20.2146 26.3113C21.4417 27.5383 23.095 27.0863 23.87 26.3113L26.3242 23.8571C27.3317 22.8496 27.3317 21.2092 26.3242 20.2017L21.2996 15.1771L27.0862 9.39042ZM6.51 8.96417L8.95125 6.51L10.5917 8.15042L9.0675 9.6875L10.8888 11.5087L12.4258 9.97167L13.9758 11.5217L11.5217 13.9758L6.51 8.96417ZM21.0154 18.5742L19.4783 20.1112L21.2996 21.9325L22.8367 20.3954L24.4771 22.0358L22.0229 24.49L16.9983 19.4654L19.4525 17.0113L21.0154 18.5742ZM8.27958 24.5417H6.45833V22.7204L18.8712 10.3075L20.5504 11.9867L20.6925 12.1288L8.27958 24.5417ZM20.6925 8.47333L22.5138 6.65208L24.335 8.47333L22.5138 10.2946L20.6925 8.47333Z" fill="white"/>
</g>
<defs>
<clipPath id="clip0_2_116">
<rect width="31" height="31" fill="white"/>
</clipPath>
</defs>
</svg>
