<svg width="56" height="56" viewBox="0 0 56 56" fill="none" xmlns="http://www.w3.org/2000/svg">
<path d="M44.8 25.984C44.8 23.632 42.896 22.4 40.32 22.4H32.816C33.376 20.384 33.6 18.48 33.6 16.8C33.6 10.304 31.808 8.95996 30.24 8.95996C29.232 8.95996 28.448 9.07196 27.44 9.63196C27.104 9.85596 26.992 10.08 26.88 10.416L25.76 16.464C24.528 19.6 21.504 22.4 19.04 24.304V40.32C19.936 40.32 20.832 40.768 21.952 41.328C23.184 41.888 24.416 42.56 25.76 42.56H36.4C38.64 42.56 40.32 40.768 40.32 39.2C40.32 38.864 40.32 38.64 40.208 38.416C41.552 37.856 42.56 36.736 42.56 35.28C42.56 34.608 42.448 34.048 42.224 33.488C43.12 32.928 43.904 31.92 43.904 30.8C43.904 30.128 43.568 29.456 43.232 28.896C44.128 28.224 44.8 27.104 44.8 25.984ZM42.448 25.984C42.448 27.44 40.992 27.552 40.768 28.224C40.544 29.008 41.664 29.232 41.664 30.576C41.664 31.92 39.984 31.92 39.76 32.704C39.536 33.6 40.32 33.824 40.32 35.168V35.392C40.096 36.512 38.416 36.624 38.08 37.072C37.744 37.632 38.08 37.856 38.08 39.088C38.08 39.76 37.296 40.208 36.4 40.208H25.76C24.864 40.208 23.968 39.76 22.848 39.2C21.952 38.752 21.056 38.304 20.16 38.08V26.32C22.96 24.192 26.544 21.056 27.888 17.136V16.912L28.896 11.312C29.344 11.2 29.68 11.2 30.24 11.2C30.464 11.2 31.36 12.544 31.36 16.8C31.36 18.48 31.024 20.272 30.464 22.4H30.24C29.568 22.4 29.12 22.848 29.12 23.52C29.12 24.192 29.568 24.64 30.24 24.64H40.32C41.44 24.64 42.448 25.2 42.448 25.984Z" fill="#EB3223"/>
<path d="M17.92 42.5599H11.2C9.96796 42.5599 8.95996 41.5519 8.95996 40.3199V24.6399C8.95996 23.4079 9.96796 22.3999 11.2 22.3999H17.92C19.152 22.3999 20.16 23.4079 20.16 24.6399V40.3199C20.16 41.5519 19.152 42.5599 17.92 42.5599ZM11.2 24.6399V40.3199H17.92V24.6399H11.2Z" fill="#EB3223"/>
</svg>
