<svg width="24" height="24" viewBox="0 0 38 38" fill="none" xmlns="http://www.w3.org/2000/svg">
<rect width="38" height="38" rx="19" fill="#FF5959"/>
<path d="M30.5833 9.83212C29.6408 10.3916 27.7498 11.154 26.6381 11.374C26.6055 11.3824 26.5789 11.3933 26.5475 11.4017C25.5651 10.4327 24.219 9.83212 22.7292 9.83212C19.7265 9.83212 17.2917 12.2669 17.2917 15.2696C17.2917 15.4279 17.2784 15.7191 17.2917 15.8738C13.2401 15.8738 10.1565 13.752 7.94521 11.0405C7.70475 11.6446 7.59962 12.5992 7.59962 13.4958C7.59962 15.1887 8.92275 16.8513 10.983 17.882C10.6035 17.9799 10.1855 18.05 9.75046 18.05C9.04841 18.05 8.30529 17.8651 7.625 17.3045C7.625 17.325 7.625 17.3443 7.625 17.3661C7.625 19.732 10.1359 21.3427 12.3689 21.791C11.9158 22.058 11.0023 22.0846 10.5564 22.0846C10.2422 22.0846 9.13058 21.9408 8.83333 21.8852C9.45441 23.8246 11.6947 24.9145 13.8298 24.9532C12.1599 26.263 11.0011 26.7488 7.5815 26.7488H6.41666C8.57716 28.1335 11.3285 29.1667 14.086 29.1667C23.0639 29.1667 28.1667 22.3239 28.1667 15.8738C28.1667 15.7699 28.1642 15.5524 28.1606 15.3337C28.1606 15.3119 28.1667 15.2914 28.1667 15.2696C28.1667 15.237 28.157 15.2056 28.157 15.173C28.1534 15.0086 28.1497 14.8552 28.1461 14.7754C29.1007 14.0867 29.9284 13.2275 30.5833 12.2488C29.7073 12.6379 28.7672 12.8989 27.78 13.0173C28.7877 12.4131 30.2196 10.9728 30.5833 9.83212Z" fill="white"/>
</svg>
