<svg width="56" height="56" viewBox="0 0 56 56" fill="none" xmlns="http://www.w3.org/2000/svg">
<path d="M0.273438 22.8941C0.109375 24.2602 0 25.6491 0 27.0608C0 39.4698 6.52969 50.2736 16.1984 56L18.0031 52.0382V24.9774L16.0016 22.8941H0.273438ZM56 24.9774C56 22.8941 53.9984 20.8107 51.9969 20.8107H35.9953C36.9906 16.644 37.9969 12.4887 37.9969 10.4054C37.9969 6.23867 35.9953 2.08335 35 1.03598C34.9781 1.01321 34.0047 0 32.0031 0C29.0063 0 29.0063 3.11933 29.0063 3.11933C29.0063 3.17626 28.0109 8.32202 28.0109 10.4054C28.0109 12.4887 24.0078 20.8107 22.0062 22.8941L20.0047 23.9301V53.0742L22.0062 54.1102H44.0016C48.0047 54.1102 50.0063 52.0268 50.0063 49.9435C50.0063 47.8601 48.0047 45.7768 46.0031 45.7768C50.0063 45.7768 52.0078 43.6934 52.0078 41.6101C52.0078 39.5267 50.0062 37.4434 48.0047 37.4434C52.0078 37.4434 54.0094 35.36 54.0094 33.2767C54.0094 31.1933 52.0078 29.11 50.0063 29.11C53.9984 29.1441 56 27.0608 56 24.9774V24.9774Z" fill="#EB3223"/>
</svg>
