<svg width="48" height="48" viewBox="0 0 48 48" fill="none" xmlns="http://www.w3.org/2000/svg">
<g clip-path="url(#clip0_55_189)">
<path d="M24 4C16.26 4 10 10.26 10 18C10 28.5 24 44 24 44C24 44 38 28.5 38 18C38 10.26 31.74 4 24 4ZM14 18C14 12.48 18.48 8 24 8C29.52 8 34 12.48 34 18C34 23.76 28.24 32.38 24 37.76C19.84 32.42 14 23.7 14 18Z" fill="#EB3223"/>
<path d="M24 23C26.7614 23 29 20.7614 29 18C29 15.2386 26.7614 13 24 13C21.2386 13 19 15.2386 19 18C19 20.7614 21.2386 23 24 23Z" fill="#EB3223"/>
</g>
<defs>
<clipPath id="clip0_55_189">
<rect width="48" height="48" fill="white"/>
</clipPath>
</defs>
</svg>
