<svg width="35" height="35" viewBox="0 0 35 35" fill="none" xmlns="http://www.w3.org/2000/svg">
<g clip-path="url(#clip0_104_43)">
<path d="M17.5002 6.5625C10.2085 6.5625 3.98141 11.0979 1.4585 17.5C3.98141 23.9021 10.2085 28.4375 17.5002 28.4375C24.7918 28.4375 31.0189 23.9021 33.5418 17.5C31.0189 11.0979 24.7918 6.5625 17.5002 6.5625ZM17.5002 24.7917C13.4752 24.7917 10.2085 21.525 10.2085 17.5C10.2085 13.475 13.4752 10.2083 17.5002 10.2083C21.5252 10.2083 24.7918 13.475 24.7918 17.5C24.7918 21.525 21.5252 24.7917 17.5002 24.7917ZM17.5002 13.125C15.0793 13.125 13.1252 15.0792 13.1252 17.5C13.1252 19.9208 15.0793 21.875 17.5002 21.875C19.921 21.875 21.8752 19.9208 21.8752 17.5C21.8752 15.0792 19.921 13.125 17.5002 13.125Z" fill="#EB3223"/>
</g>
<defs>
<clipPath id="clip0_104_43">
<rect width="35" height="35" fill="white"/>
</clipPath>
</defs>
</svg>
