<svg width="57" height="57" viewBox="0 0 57 57" fill="none" xmlns="http://www.w3.org/2000/svg">
<path d="M40.375 36.2068V52.5278C40.375 52.7379 40.3193 52.9443 40.2136 53.1258C40.1078 53.3074 39.9558 53.4576 39.773 53.5612C39.5902 53.6648 39.3832 53.718 39.1731 53.7155C38.963 53.7129 38.7574 53.6547 38.5771 53.5467L28.5 47.4999L18.4229 53.5467C18.2425 53.6548 18.0366 53.713 17.8263 53.7155C17.616 53.7179 17.4088 53.6645 17.226 53.5606C17.0431 53.4567 16.8911 53.3062 16.7855 53.1243C16.6799 52.9424 16.6245 52.7357 16.625 52.5254V36.2092C13.5521 33.7489 11.3192 30.3949 10.235 26.6107C9.1507 22.8265 9.26857 18.799 10.5723 15.0847C11.876 11.3704 14.3012 8.15272 17.5127 5.87635C20.7243 3.59999 24.5635 2.37732 28.5 2.37732C32.4365 2.37732 36.2757 3.59999 39.4873 5.87635C42.6988 8.15272 45.124 11.3704 46.4277 15.0847C47.7314 18.799 47.8493 22.8265 46.765 26.6107C45.6808 30.3949 43.4479 33.7489 40.375 36.2092V36.2068ZM28.5 35.6249C32.2793 35.6249 35.9039 34.1236 38.5763 31.4512C41.2487 28.7788 42.75 25.1543 42.75 21.3749C42.75 17.5956 41.2487 13.9711 38.5763 11.2987C35.9039 8.62628 32.2793 7.12494 28.5 7.12494C24.7207 7.12494 21.0961 8.62628 18.4237 11.2987C15.7513 13.9711 14.25 17.5956 14.25 21.3749C14.25 25.1543 15.7513 28.7788 18.4237 31.4512C21.0961 34.1236 24.7207 35.6249 28.5 35.6249V35.6249ZM28.5 30.8749C25.9804 30.8749 23.5641 29.874 21.7825 28.0925C20.0009 26.3109 19 23.8945 19 21.3749C19 18.8554 20.0009 16.439 21.7825 14.6574C23.5641 12.8758 25.9804 11.8749 28.5 11.8749C31.0196 11.8749 33.4359 12.8758 35.2175 14.6574C36.9991 16.439 38 18.8554 38 21.3749C38 23.8945 36.9991 26.3109 35.2175 28.0925C33.4359 29.874 31.0196 30.8749 28.5 30.8749Z" fill="#FF5959"/>
</svg>
