<svg width="57" height="57" viewBox="0 0 57 57" fill="none" xmlns="http://www.w3.org/2000/svg">
<path d="M34.105 33.7962C32.5174 35.0763 30.5394 35.7744 28.5 35.7744C26.4606 35.7744 24.4827 35.0763 22.895 33.7962C22.41 33.3931 21.7847 33.1992 21.1567 33.2571C20.5287 33.315 19.9494 33.62 19.5463 34.105C19.1431 34.59 18.9492 35.2153 19.0071 35.8433C19.065 36.4713 19.37 37.0506 19.855 37.4538C22.2807 39.4787 25.3402 40.5879 28.5 40.5879C31.6598 40.5879 34.7193 39.4787 37.145 37.4538C37.63 37.0506 37.935 36.4713 37.9929 35.8433C38.0508 35.2153 37.8569 34.59 37.4538 34.105C37.2542 33.8648 37.0092 33.6664 36.7329 33.5209C36.4566 33.3754 36.1543 33.2857 35.8433 33.2571C35.2153 33.1992 34.59 33.3931 34.105 33.7962V33.7962ZM21.8738 25.0325C22.3187 25.4748 22.9207 25.7231 23.5481 25.7231C24.1756 25.7231 24.7775 25.4748 25.2225 25.0325C25.6649 24.5875 25.9131 23.9856 25.9131 23.3581C25.9131 22.7307 25.6649 22.1287 25.2225 21.6838C23.8633 20.3941 22.0611 19.6752 20.1875 19.6752C18.3139 19.6752 16.5117 20.3941 15.1525 21.6838C14.9039 21.8967 14.702 22.1587 14.5594 22.4533C14.4169 22.748 14.3367 23.0689 14.3241 23.396C14.3115 23.7231 14.3666 24.0492 14.486 24.354C14.6054 24.6588 14.7865 24.9356 15.018 25.167C15.2494 25.3985 15.5262 25.5796 15.831 25.699C16.1358 25.8184 16.4619 25.8735 16.789 25.8609C17.1161 25.8483 17.437 25.7682 17.7317 25.6256C18.0263 25.483 18.2883 25.2811 18.5013 25.0325C18.722 24.8099 18.9847 24.6332 19.2741 24.5126C19.5636 24.3921 19.874 24.33 20.1875 24.33C20.501 24.33 20.8115 24.3921 21.1009 24.5126C21.3903 24.6332 21.653 24.8099 21.8738 25.0325ZM41.8475 21.6838C40.4884 20.3941 38.6861 19.6752 36.8125 19.6752C34.9389 19.6752 33.1367 20.3941 31.7775 21.6838C31.3884 22.1381 31.1851 22.7225 31.2082 23.3203C31.2313 23.918 31.4791 24.485 31.902 24.908C32.325 25.3309 32.892 25.5787 33.4898 25.6018C34.0875 25.6249 34.6719 25.4216 35.1263 25.0325C35.347 24.8099 35.6097 24.6332 35.8991 24.5126C36.1886 24.3921 36.499 24.33 36.8125 24.33C37.126 24.33 37.4365 24.3921 37.7259 24.5126C38.0153 24.6332 38.278 24.8099 38.4988 25.0325C38.9437 25.4748 39.5457 25.7231 40.1731 25.7231C40.8006 25.7231 41.4025 25.4748 41.8475 25.0325C42.2899 24.5875 42.5381 23.9856 42.5381 23.3581C42.5381 22.7307 42.2899 22.1287 41.8475 21.6838V21.6838ZM28.5 4.75C23.8027 4.75 19.2109 6.14291 15.3052 8.7526C11.3996 11.3623 8.35545 15.0715 6.55787 19.4113C4.76029 23.751 4.28996 28.5263 5.20636 33.1334C6.12276 37.7404 8.38473 41.9723 11.7062 45.2938C15.0277 48.6153 19.2596 50.8773 23.8666 51.7937C28.4737 52.7101 33.249 52.2397 37.5887 50.4421C41.9285 48.6446 45.6377 45.6005 48.2474 41.6948C50.8571 37.7891 52.25 33.1973 52.25 28.5C52.25 25.3811 51.6357 22.2928 50.4422 19.4113C49.2486 16.5298 47.4992 13.9116 45.2938 11.7062C43.0884 9.50082 40.4702 7.75141 37.5887 6.55786C34.7073 5.36431 31.6189 4.75 28.5 4.75V4.75ZM28.5 47.5C24.7422 47.5 21.0687 46.3857 17.9442 44.2979C14.8196 42.2102 12.3844 39.2428 10.9463 35.771C9.50824 32.2992 9.13197 28.4789 9.86509 24.7933C10.5982 21.1076 12.4078 17.7222 15.065 15.065C17.7222 12.4078 21.1077 10.5982 24.7933 9.86508C28.4789 9.13196 32.2992 9.50822 35.771 10.9463C39.2428 12.3844 42.2102 14.8196 44.2979 17.9442C46.3857 21.0687 47.5 24.7422 47.5 28.5C47.5 33.5391 45.4982 38.3718 41.935 41.935C38.3718 45.4982 33.5391 47.5 28.5 47.5V47.5Z" fill="#FF5959"/>
</svg>
