<svg width="27" height="27" viewBox="0 0 27 27" fill="none" xmlns="http://www.w3.org/2000/svg">
<path d="M23.7083 3.29167V23.7083H3.29167V3.29167H23.7083ZM23.7083 0.375H3.29167C1.67292 0.375 0.375 1.6875 0.375 3.29167V23.7083C0.375 25.3125 1.67292 26.625 3.29167 26.625H23.7083C25.3125 26.625 26.625 25.3125 26.625 23.7083V3.29167C26.625 1.6875 25.3125 0.375 23.7083 0.375ZM13.5 13.5C11.0938 13.5 9.125 11.5312 9.125 9.125C9.125 6.71875 11.0938 4.75 13.5 4.75C15.9062 4.75 17.875 6.71875 17.875 9.125C17.875 11.5312 15.9062 13.5 13.5 13.5ZM13.5 7.66667C12.6979 7.66667 12.0417 8.32292 12.0417 9.125C12.0417 9.92708 12.6979 10.5833 13.5 10.5833C14.3021 10.5833 14.9583 9.92708 14.9583 9.125C14.9583 8.32292 14.3021 7.66667 13.5 7.66667ZM22.25 22.25H4.75V20.0187C4.75 16.3729 10.5396 14.7979 13.5 14.7979C16.4604 14.7979 22.25 16.3729 22.25 20.0187V22.25ZM8.11875 19.3333H18.8813C17.875 18.5167 15.4104 17.7 13.5 17.7C11.5896 17.7 9.11042 18.5167 8.11875 19.3333Z" fill="white"/>
</svg>
