<svg width="33" height="33" viewBox="0 0 33 33" fill="none" xmlns="http://www.w3.org/2000/svg">
<g clip-path="url(#clip0_2_123)">
<path d="M19.25 8.25V5.5H13.75V8.25H19.25ZM5.5 11V26.125H27.5V11H5.5ZM27.5 8.25C29.0263 8.25 30.25 9.47375 30.25 11V26.125C30.25 27.6512 29.0263 28.875 27.5 28.875H5.5C3.97375 28.875 2.75 27.6512 2.75 26.125L2.76375 11C2.76375 9.47375 3.97375 8.25 5.5 8.25H11V5.5C11 3.97375 12.2238 2.75 13.75 2.75H19.25C20.7763 2.75 22 3.97375 22 5.5V8.25H27.5Z" fill="white"/>
</g>
<defs>
<clipPath id="clip0_2_123">
<rect width="33" height="33" fill="white"/>
</clipPath>
</defs>
</svg>
